<?xml version="1.0" standalone="no"?>
<!DOCTYPE svg PUBLIC "-//W3C//DTD SVG 20010904//EN"
 "http://www.w3.org/TR/2001/REC-SVG-20010904/DTD/svg10.dtd">
<svg version="1.0" xmlns="http://www.w3.org/2000/svg"
 width="732.000000pt" height="254.000000pt" viewBox="0 0 732.000000 254.000000"
 preserveAspectRatio="xMidYMid meet">

<g transform="translate(0.000000,254.000000) scale(0.100000,-0.100000)"
fill="#000000" stroke="none">
<path d="M74 1993 c-12 -2 -32 -15 -45 -29 l-24 -26 -3 -526 c-2 -360 0 -539
8 -564 19 -67 25 -68 415 -68 l345 0 0 -157 c0 -186 9 -226 53 -253 31 -19 56
-20 679 -20 396 0 657 4 672 10 14 5 35 24 46 42 19 31 20 51 20 295 0 182 -4
270 -12 288 -25 55 -27 55 -538 55 l-470 0 0 355 c0 295 -2 355 -14 355 -10 0
-15 23 -18 95 -4 88 -6 97 -33 125 l-29 30 -515 -1 c-284 -1 -526 -4 -537 -6z
m603 -268 c90 -27 136 -95 135 -198 -1 -80 -15 -116 -65 -164 -56 -55 -85 -65
-194 -64 l-93 1 0 -125 0 -126 -62 3 -63 3 -3 330 c-1 181 0 336 3 342 7 19
276 18 342 -2z"/>
<path d="M470 1514 l0 -117 73 5 c88 6 122 25 139 79 8 30 8 48 -1 80 -15 51
-53 69 -146 69 l-65 0 0 -116z"/>
</g>
</svg>
