<svg id="Capa_1" enable-background="new 0 0 512 512" height="512" viewBox="0 0 512 512" width="512" xmlns="http://www.w3.org/2000/svg"><g><path d="m390.251 0c-67.133 0-121.75 54.617-121.75 121.75 0 67.132 54.617 121.749 121.75 121.749 67.132 0 121.749-54.617 121.749-121.749 0-67.133-54.617-121.75-121.749-121.75zm-13.235 172.348-43.021-43.021 21.236-21.236 21.785 21.785 50.219-50.219 21.236 21.236z"/><path d="m148.801 169.685-26.7-26.7-26.7 26.7-21.236-21.236 26.7-26.7-26.7-26.7 21.236-21.236 26.7 26.7 26.7-26.7 21.236 21.236-26.7 26.7 19.206 19.206c3.784-25.274 25.636-44.72 51.947-44.72 10.177 0 19.681 2.918 27.737 7.949-8.54-58.839-59.309-104.184-120.477-104.184-67.133 0-121.75 54.617-121.75 121.75 0 67.132 54.617 121.749 121.75 121.749 13.842 0 27.329-2.29 40.21-6.805v-80.168z"/><path d="m238.021 148.766c0-12.975-10.556-23.531-23.531-23.531s-23.531 10.556-23.531 23.531v199.494h-30v-58.93l-52.261 41.01v39.7c0 26.598 12.605 52.135 33.72 68.312l21.525 16.491-.042 57.157h157.967v-57.542l19.785-16.529c19.625-16.396 30.881-40.467 30.881-66.041v-87.549l-104.512-35.098v36.747h-30v-137.222z"/></g></svg>