<?xml version="1.0" encoding="iso-8859-1"?>
<!-- Generator: Adobe Illustrator 19.0.0, SVG Export Plug-In . SVG Version: 6.00 Build 0)  -->
<svg version="1.1" id="Capa_1" xmlns="http://www.w3.org/2000/svg" xmlns:xlink="http://www.w3.org/1999/xlink" x="0px" y="0px"
	 viewBox="0 0 512 512" style="enable-background:new 0 0 512 512;" xml:space="preserve">
<path style="fill:#FDA429;" d="M463.813,482H29.988L4.382,507.607C7.096,510.322,10.846,512,14.988,512h448.825
	c8.284,0,15-6.716,15-15S472.097,482,463.813,482z"/>
<path style="fill:#FD6B82;" d="M507.594,119.527L392.461,4.393c-5.857-5.858-15.355-5.858-21.213,0L315.772,59.87
	c-5.858,5.858-5.858,15.355,0,21.213l115.134,115.134c5.854,5.855,15.357,5.857,21.213,0l55.476-55.476
	C513.453,134.882,513.453,125.384,507.594,119.527z"/>
<path style="fill:#FC495C;" d="M450.028,61.96l-76.689,76.689l57.567,57.567c5.854,5.855,15.357,5.857,21.213,0l55.476-55.476
	c5.858-5.858,5.858-15.355,0-21.213L450.028,61.96z"/>
<path style="fill:#FAD557;" d="M455.798,190.189l-55.24,172.42c-1.4,4.38-4.72,7.87-9.02,9.48L23.298,509.91
	c-2.198,0.703-4.441,2.09-8.31,2.09c-3.91,0-7.74-1.53-10.61-4.39c-8.159-8.178-2.4-18.123-2.3-18.92l137.82-368.24
	c1.61-4.3,5.1-7.62,9.48-9.02l172.42-55.24c5.36-1.71,11.21-0.29,15.19,3.68l115.13,115.13
	C456.088,178.979,457.508,184.839,455.798,190.189z"/>
<g>
	<path style="fill:#FCB12B;" d="M394.553,117.435L4.378,507.609c2.87,2.86,6.7,4.39,10.61,4.39c3.869,0,6.112-1.388,8.31-2.09
		l368.24-137.82c4.3-1.61,7.62-5.1,9.02-9.48l55.24-172.42c1.71-5.35,0.29-11.21-3.68-15.19L394.553,117.435z"/>
	<path style="fill:#FCB12B;" d="M290.645,221.343c-25.271-25.271-66.388-25.27-91.658,0c-21.819,21.82-24.697,55.024-9.368,79.816
		L2.078,488.69c-0.097,0.773-5.857,10.743,2.3,18.92c2.87,2.86,6.7,4.39,10.61,4.39c3.841,0,6.088-1.38,8.31-2.09l187.546-187.555
		c25.159,15.488,58.31,12.139,79.801-9.353l0,0C315.975,287.672,315.977,246.674,290.645,221.343z"/>
</g>
<path style="fill:#FDA429;" d="M290.645,221.343C274.582,237.406,20.472,491.516,4.378,507.609c2.87,2.86,6.7,4.39,10.61,4.39
	c3.842,0,6.088-1.38,8.31-2.09l187.546-187.555c25.159,15.488,58.31,12.139,79.801-9.353l0,0
	C315.975,287.672,315.977,246.674,290.645,221.343z"/>
<g>
</g>
<g>
</g>
<g>
</g>
<g>
</g>
<g>
</g>
<g>
</g>
<g>
</g>
<g>
</g>
<g>
</g>
<g>
</g>
<g>
</g>
<g>
</g>
<g>
</g>
<g>
</g>
<g>
</g>
</svg>
